<?xml version="1.0" encoding="utf-8"?>
<!-- Generator: Adobe Illustrator 20.1.0, SVG Export Plug-In . SVG Version: 6.00 Build 0)  -->
<svg version="1.1" id="Layer_1" xmlns="http://www.w3.org/2000/svg" xmlns:xlink="http://www.w3.org/1999/xlink" x="0px" y="0px"
	 viewBox="0 0 500 188" style="enable-background:new 0 0 500 188;" xml:space="preserve">
<style type="text/css">
	.st0{fill:#B5B3B3;}
</style>
<g>
	<g>
		<path class="st0" d="M5.7,97.8c1.9-1.4,3.7-3.2,5.3-5.4c1.6-2.2,2.8-4.5,3.6-7.1c0.9-3.1,1-6.5,1.4-10.3c0.3-3.8,0-9.6,0-17.4V6.8
			L6,5.3V0h34v5.3L30,6.8v46.3v6.5c0,5.6,0,10.2-0.2,13.7c-0.2,3.5-0.5,6.6-1.1,9.1c-0.9,4.4-2.7,8.2-5.3,11.4
			c-2.6,3.2-5.7,5.8-9.2,7.8c-3.5,2-7.2,3.4-11,4.2L0,100.6C1.8,100.2,3.7,99.2,5.7,97.8z"/>
		<path class="st0" d="M96.2,24.9c4.4,2.8,7.6,6.6,9.7,11.4c2.1,4.8,3.2,10.4,3.2,16.6c0,6.7-1.4,12.4-4.3,17.3
			c-2.9,4.9-6.7,8.6-11.4,11.1c-4.7,2.5-9.7,3.8-15,3.8c-6.6,0-12-1.4-16.4-4.2s-7.6-6.6-9.7-11.4c-2.1-4.8-3.2-10.4-3.2-16.6
			c0-6.6,1.4-12.3,4.3-17.2c2.9-4.9,6.7-8.6,11.4-11.1s9.7-3.8,14.9-3.8C86.4,20.7,91.9,22.1,96.2,24.9z M91.1,34.8
			c-2.5-4.7-6.5-7.1-11.9-7.1c-5.2,0-9.1,2-11.8,6.1c-2.6,4-4,10.1-4,18.1c0,8,1.3,14.4,3.8,19.1c2.5,4.7,6.5,7.1,11.9,7.1
			c10.4,0,15.7-8.1,15.7-24.2C94.8,45.9,93.6,39.5,91.1,34.8z"/>
		<path class="st0" d="M122.3,36.1c2.6-4.9,6.2-8.7,10.8-11.4c4.6-2.7,9.8-4,15.7-4c7.2,0,12.4,1.8,16.4,5.4c4,3.6,5.9,8.8,5.9,15.6
			v1.9c0,3.6,0.6,6.3,0.2,9.3H132c0.1,5,1.1,9.6,2.8,13.3c1.7,3.7,4,6.1,6.8,7.8c2.8,1.7,6,2.5,9.6,2.5c3.1,0,6.3-0.6,9.5-1.7
			c3.3-1.1,5.8-2.3,7.7-3.7l2.4,5.4c-1.4,1.5-3.4,2.9-5.9,4.2c-2.5,1.3-5.3,2.4-8.4,3.2c-3.1,0.8-6.1,1.2-9.1,1.2
			c-6.3,0-11.7-1.3-16-4c-4.4-2.7-7.6-6.4-9.7-11.2c-2.1-4.8-3.2-10.4-3.2-16.8C118.4,46.7,119.7,41,122.3,36.1z M158.3,46
			c0.1-1,0.2-2.9,0.2-4.5c0-4.1-1-7.6-3-10.1c-2-2.5-5-3.8-9.3-3.8c-4.2,0-7.6,1.6-10,4.3c-2.5,2.7-3.9,8-4.2,14H158.3z"/>
	</g>
	<g>
		<path d="M9.9,121.9c3.7-6.5,8.7-11.4,15.1-14.9c6.4-3.5,13.5-5.2,21.4-5.2c3.6,0,7.1,0.3,10.5,0.8c3.4,0.5,7.2,1.2,11.4,2.1
			l3.1,1.1L70.2,127h-8.4l-3.2-14.5c-0.8-1-2.4-2.1-4.8-2.7c-2.4-0.6-5.6-1-9.5-1c-4.8,0-9.1,1.3-12.8,3.9
			c-3.7,2.7-6.6,6.6-8.7,11.8c-2.1,5.2-3.1,11.5-3.1,18.9c0,6.8,0.9,13.1,2.8,18.8c1.9,5.7,4.7,10.3,8.6,13.8
			c3.9,3.5,8.8,5.2,14.6,5.2c6.1,0,10.4-1.4,13.1-4.1l4.9-11.6l8,1l-2.5,16.9c-1,0.1-2,0.2-2.9,0.5c-0.9,0.2-2.2,0.6-3.7,1.1
			c-2.6,0.9-5,1.6-7.3,2c-2.3,0.5-5.2,0.7-8.6,0.7c-9,0-16.6-1.7-22.9-5.2S12.6,174.4,9.3,168s-4.9-14.2-4.9-23.3
			C4.4,136,6.2,128.4,9.9,121.9z"/>
		<path d="M127.6,127.8c4.4,2.8,7.6,6.6,9.7,11.4c2.1,4.8,3.2,10.4,3.2,16.6c0,6.7-1.4,12.4-4.3,17.3c-2.9,4.9-6.7,8.6-11.4,11.1
			c-4.7,2.5-9.7,3.8-15,3.8c-6.6,0-12-1.4-16.4-4.2c-4.4-2.8-7.6-6.6-9.7-11.4c-2.1-4.8-3.2-10.4-3.2-16.6c0-6.6,1.4-12.3,4.3-17.2
			c2.9-4.9,6.7-8.6,11.4-11.1c4.7-2.6,9.7-3.8,14.9-3.8C117.8,123.6,123.2,125,127.6,127.8z M122.4,137.7c-2.5-4.7-6.5-7.1-11.9-7.1
			c-5.2,0-9.1,2-11.8,6.1c-2.6,4-4,10.1-4,18.1c0,8,1.3,14.4,3.8,19.1c2.5,4.7,6.5,7.1,11.9,7.1c10.4,0,15.7-8.1,15.7-24.2
			C126.2,148.8,124.9,142.4,122.4,137.7z"/>
		<path d="M158,180.8V102l-9-1.1v-5.4l19.2-1.5h0.1l2.6,1v85.8l10,1v6.2h-32v-6.2L158,180.8z"/>
		<path d="M197,180.8V102l-9-1.1v-5.4l19.1-1.5h0.1l2.8,1v85.8l9,1v6.2h-31v-6.2L197,180.8z"/>
		<path d="M236,180.8v-47.4l-8-2.3v-6.7l18.1-1.5h0.3l2.6,1.4v56.5l9,1v6.2h-31v-6.2L236,180.8z M236.2,97.5
			c1.5-1.8,3.6-2.5,6.2-2.5h0.1c1.6,0,3,0.2,4.1,0.9c1.2,0.7,2.1,1.6,2.7,2.8c0.6,1.2,0.9,2.4,0.9,3.8c0,2.6-0.8,5-2.3,6.7
			c-1.5,1.7-3.7,2.8-6.6,2.8h-0.1c-2.2,0-4-1-5.3-2.4c-1.4-1.5-2.1-3.3-2.1-5.6C234,101.4,234.7,99.2,236.2,97.5z"/>
		<path d="M315.8,127.8l-0.6,17.2h-7.9l-2.6-10.6c-0.5-1.2-1.6-2.4-3.1-2.9c-1.6-0.6-3.4-1-5.6-1c-3.3,0-6.2,0.8-8.6,2.5
			c-2.4,1.7-4.4,4.3-5.7,7.7c-1.4,3.4-2,7.6-2,12.7c0,5.9,0.8,10.7,2.4,14.6c1.6,3.9,3.8,6.7,6.6,8.6c2.8,1.8,5.9,2.8,9.4,2.8
			c3.3,0,6.3-0.5,9.1-1.4c2.8-0.9,5.1-2,7.1-3.3l2.4,4.9c-1.4,1.4-3.2,2.7-5.4,4c-2.3,1.3-4.8,2.4-7.6,3.2c-2.8,0.8-5.6,1.2-8.4,1.2
			c-6.4,0-11.8-1.4-16.2-4.1c-4.4-2.7-7.7-6.4-9.9-11.1s-3.3-10-3.3-16c0-6.2,1.2-11.8,3.7-16.8c2.5-5,6.2-9,11.1-12
			c4.9-3,10.8-4.1,17.7-4.1C303.8,123.9,309.6,125.4,315.8,127.8z"/>
		<path d="M372.1,127.8c4.4,2.8,7.6,6.6,9.7,11.4c2.1,4.8,3.2,10.4,3.2,16.6c0,6.7-1.4,12.4-4.3,17.3c-2.9,4.9-6.7,8.6-11.4,11.1
			c-4.7,2.5-9.7,3.8-15,3.8c-6.6,0-12-1.4-16.4-4.2c-4.4-2.8-7.6-6.6-9.7-11.4c-2.1-4.8-3.2-10.4-3.2-16.6c0-6.6,1.4-12.3,4.3-17.2
			c2.9-4.9,6.7-8.6,11.4-11.1c4.7-2.6,9.7-3.8,14.9-3.8C362.3,123.6,367.7,125,372.1,127.8z M366.9,137.7c-2.5-4.7-6.5-7.1-11.9-7.1
			c-5.2,0-9.1,2-11.8,6.1c-2.6,4-4,10.1-4,18.1c0,8,1.3,14.4,3.8,19.1c2.5,4.7,6.5,7.1,11.9,7.1c10.4,0,15.7-8.1,15.7-24.2
			C370.7,148.8,369.4,142.4,366.9,137.7z"/>
		<path d="M432,145.2c0-3-0.3-5.4-1-7.2c-0.7-1.7-2-3-3.8-3.8c-1.8-0.8-4.4-1-7.7-1c-6.4,0-13.1,2.8-20.1,4.8h-0.1l-2.8-5.3
			c1-0.9,3-2.2,5.8-3.6c2.9-1.4,6.2-2.7,9.8-3.8c3.7-1.1,7.2-1.6,10.5-1.6c5.5,0,9.8,0.7,13,2.1c3.1,1.4,5.1,3.7,6.5,6.8
			c1.4,3.1,1.8,7.4,1.8,12.7V181h7v5c-6,1.3-9.4,2-12.2,2c-1.6,0-2.7-0.1-3.5-0.4c-0.8-0.3-1.9-0.8-2.3-1.6c-0.4-0.8-1-2.1-1-3.8
			v-2.7c-1,2-4.2,3.9-7.5,5.7c-3.3,1.8-6.8,2.7-10.9,2.7c-3.6,0-6.8-0.7-9.7-2c-3-1.3-5.3-3.4-7-6.1c-1.8-2.8-2.6-6.2-2.6-10.3
			c0-5,1.8-9.2,5.2-12.4c3.5-3.2,8-5.6,13.7-7.2c5.7-1.5,11.9-2.3,18.9-2.3V145.2z M432,154c-6,0-10,0.6-13.6,1.9
			c-3.6,1.3-6.1,2.9-7.7,5c-1.6,2.1-2.4,4.4-2.4,7.1c0,4,1,6.9,2.9,8.7c2,1.8,4.6,2.8,7.9,2.8c1.8,0,3.9-0.5,6.4-1.5
			c2.5-1,4.5-2.2,6.5-3.6V154z"/>
		<path d="M458,132v-5.6c1-0.3,2.3-0.7,3.7-1.2c1.4-0.5,2.3-0.9,2.7-1.2c1.2-1,2.3-2.5,3.1-4.7c0.6-1.4,1.3-3.1,2.2-6
			c0.9-3,1.6-5.3,1.9-6.3h7.3l0.1,17H498v8h-19v33.1c0,4.5,0.2,7.6,0.5,9.3s0.8,3.1,1.6,3.6c0.8,0.5,2.3,1,4.5,1h0.1
			c2,0,4.2-0.1,6.6-0.6c2.5-0.5,4.4-0.4,5.7-1.4h0.1l1.9,5.1c-1.1,0.9-2.8,1.7-5.1,2.7c-2.3,1-4.7,1.7-7.3,2.3
			c-2.6,0.6-5,0.9-7.2,0.9h-0.1c-4.7,0-8.3-1-10.7-3c-2.4-2-3.7-5.4-3.7-10.1V132H458z"/>
	</g>
</g>
</svg>
